<svg width="269" height="228" viewBox="0 0 269 228" fill="none" xmlns="http://www.w3.org/2000/svg">
<mask id="path-1-inside-1" fill="white">
<path d="M227 66.8424C227 66.8424 205.386 30.7277 199.717 28.0191C194.047 25.3105 162.512 25.9124 150.819 22C150.819 22 136.291 36.4459 114.677 36.4459C93.063 36.4459 78.5354 22 78.5354 22C66.4882 25.9124 35.3071 25.3105 29.6378 28.0191C23.9685 30.7277 2 66.8424 2 66.8424C14.0472 90.0159 42.3937 95.1322 42.3937 95.1322L53.7323 80.0844L48.4173 196.554C75.7008 210.097 95.5433 211 114.677 211C133.811 211 153.299 210.097 180.583 196.855L175.268 80.3853L186.606 95.4331C186.606 95.1322 215.307 90.3169 227 66.8424"/>
</mask>
<path d="M150.819 22L151.771 19.155L150.016 18.5678L148.704 19.8727L150.819 22ZM78.5354 22L80.6508 19.8727L79.3515 18.5807L77.6088 19.1467L78.5354 22ZM2 66.8424L-0.563047 65.2833L-1.44121 66.7269L-0.661792 68.2261L2 66.8424ZM42.3937 95.1322L41.8608 98.0845L43.6783 98.4125L44.7897 96.9375L42.3937 95.1322ZM53.7323 80.0844L56.7292 80.2212L57.1712 70.5354L51.3363 78.279L53.7323 80.0844ZM48.4173 196.554L45.4204 196.417L45.3313 198.372L47.0835 199.241L48.4173 196.554ZM180.583 196.855L181.893 199.554L183.67 198.692L183.58 196.718L180.583 196.855ZM175.268 80.3853L177.664 78.58L171.829 70.8364L172.271 80.5221L175.268 80.3853ZM186.606 95.4331L184.21 97.2385L189.606 104.4V95.4331H186.606ZM227 66.8424C229.574 65.3017 229.574 65.3015 229.574 65.3011C229.574 65.3008 229.573 65.3003 229.573 65.2997C229.572 65.2984 229.571 65.2966 229.57 65.2943C229.567 65.2897 229.563 65.2828 229.557 65.2739C229.547 65.2559 229.531 65.2294 229.51 65.1946C229.468 65.125 229.406 65.0223 229.326 64.8884C229.165 64.6208 228.928 64.2288 228.625 63.7296C228.02 62.7313 227.149 61.3034 226.087 59.582C223.964 56.1408 221.071 51.5189 217.997 46.8071C214.928 42.1039 211.653 37.2725 208.772 33.4285C207.334 31.5101 205.96 29.7931 204.736 28.4468C203.614 27.2125 202.308 25.9323 201.01 25.3122L198.423 30.726C198.414 30.7217 198.59 30.8147 198.975 31.1538C199.334 31.4692 199.775 31.9095 200.297 32.4832C201.34 33.6303 202.585 35.1791 203.971 37.0274C206.736 40.7167 209.928 45.4218 212.972 50.0859C216.009 54.7413 218.874 59.3173 220.981 62.7323C222.034 64.4389 222.896 65.8537 223.495 66.8409C223.794 67.3345 224.028 67.7211 224.186 67.9838C224.265 68.1151 224.325 68.2155 224.366 68.2827C224.386 68.3163 224.401 68.3417 224.411 68.3585C224.416 68.3669 224.42 68.3731 224.422 68.3772C224.424 68.3793 224.424 68.3808 224.425 68.3817C224.425 68.3822 224.426 68.3825 224.426 68.3828C224.426 68.3829 224.426 68.383 227 66.8424ZM201.01 25.3122C199.908 24.786 198.451 24.4454 196.986 24.1884C195.45 23.919 193.622 23.6963 191.621 23.5004C187.626 23.1091 182.723 22.8042 177.728 22.4678C172.699 22.1291 167.548 21.7568 162.936 21.2296C158.275 20.6967 154.377 20.027 151.771 19.155L149.867 24.845C153.107 25.9292 157.536 26.6514 162.254 27.1907C167.021 27.7357 172.3 28.1157 177.325 28.4542C182.384 28.795 187.159 29.092 191.036 29.4718C192.973 29.6615 194.63 29.8668 195.949 30.0982C197.339 30.3419 198.107 30.5751 198.423 30.726L201.01 25.3122ZM150.819 22C148.704 19.8727 148.704 19.872 148.705 19.8713C148.705 19.8712 148.706 19.8706 148.706 19.8703C148.707 19.8697 148.707 19.8693 148.707 19.8692C148.707 19.8689 148.707 19.8694 148.705 19.8708C148.703 19.8736 148.696 19.8798 148.687 19.8892C148.667 19.9081 148.634 19.9401 148.587 19.9844C148.494 20.0729 148.346 20.2103 148.147 20.3896C147.748 20.7483 147.141 21.2738 146.342 21.9109C144.741 23.1866 142.377 24.9006 139.367 26.6168C133.334 30.0569 124.812 33.4459 114.677 33.4459V39.4459C126.156 39.4459 135.705 35.6119 142.339 31.829C145.663 29.9338 148.282 28.0364 150.081 26.6034C150.981 25.8862 151.678 25.2832 152.158 24.8519C152.398 24.6361 152.584 24.4632 152.714 24.3401C152.779 24.2785 152.83 24.2294 152.867 24.1937C152.885 24.1758 152.9 24.1612 152.911 24.1501C152.917 24.1446 152.921 24.1399 152.925 24.1361C152.927 24.1342 152.929 24.1325 152.93 24.131C152.931 24.1303 152.932 24.1294 152.933 24.129C152.933 24.1281 152.934 24.1273 150.819 22ZM114.677 33.4459C104.542 33.4459 96.02 30.0569 89.987 26.6168C86.9771 24.9006 84.6136 23.1866 83.0126 21.9109C82.213 21.2738 81.6064 20.7483 81.2074 20.3896C81.0079 20.2103 80.8605 20.0729 80.7671 19.9844C80.7204 19.9401 80.6872 19.9081 80.6677 19.8892C80.658 19.8798 80.6517 19.8736 80.6488 19.8708C80.6474 19.8694 80.6469 19.8689 80.6472 19.8692C80.6474 19.8693 80.6477 19.8697 80.6483 19.8703C80.6486 19.8706 80.6492 19.8712 80.6494 19.8713C80.65 19.872 80.6508 19.8727 78.5354 22C76.4201 24.1273 76.4209 24.1281 76.4218 24.129C76.4222 24.1294 76.4231 24.1303 76.4239 24.131C76.4253 24.1325 76.427 24.1342 76.429 24.1361C76.4328 24.1399 76.4376 24.1446 76.4432 24.1501C76.4545 24.1612 76.4694 24.1758 76.4878 24.1937C76.5246 24.2294 76.5756 24.2785 76.6406 24.3401C76.7705 24.4632 76.9564 24.6361 77.1964 24.8519C77.6762 25.2832 78.3735 25.8862 79.2736 26.6034C81.072 28.0364 83.6912 29.9338 87.015 31.829C93.6493 35.6119 103.198 39.4459 114.677 39.4459V33.4459ZM77.6088 19.1467C74.8997 20.0265 70.9437 20.6971 66.2704 21.2294C61.6407 21.7568 56.499 22.1291 51.4924 22.4678C46.5196 22.8042 41.6491 23.1092 37.6811 23.5006C35.6944 23.6966 33.8784 23.9194 32.351 24.1889C30.8924 24.4464 29.4434 24.7872 28.3445 25.3122L30.9311 30.726C31.2495 30.5739 32.0151 30.341 33.3939 30.0976C34.7039 29.8664 36.3482 29.6612 38.2702 29.4716C42.1196 29.0919 46.8603 28.7949 51.8974 28.4541C56.9006 28.1157 62.1674 27.7356 66.9495 27.1909C71.6882 26.6511 76.1475 25.9297 79.4621 24.8533L77.6088 19.1467ZM28.3445 25.3122C27.0526 25.9294 25.7424 27.2041 24.6114 28.4374C23.3785 29.7819 21.9918 31.4973 20.5374 33.415C17.6231 37.2575 14.3044 42.0877 11.1913 46.7905C8.07264 51.5018 5.1352 56.1232 2.97903 59.5641C1.90043 61.2854 1.01614 62.7132 0.400999 63.7114C0.0934074 64.2106 -0.146953 64.6025 -0.31073 64.8701C-0.392621 65.0039 -0.455371 65.1067 -0.497812 65.1762C-0.519033 65.211 -0.535177 65.2375 -0.546098 65.2554C-0.551558 65.2644 -0.555713 65.2712 -0.558544 65.2759C-0.55996 65.2782 -0.561044 65.28 -0.561795 65.2812C-0.562171 65.2818 -0.562484 65.2823 -0.562672 65.2826C-0.562901 65.283 -0.563047 65.2833 2 66.8424C4.56305 68.4015 4.56307 68.4014 4.56317 68.4012C4.56332 68.401 4.56351 68.4007 4.5638 68.4002C4.56439 68.3993 4.5653 68.3977 4.56655 68.3957C4.56905 68.3916 4.57287 68.3853 4.57799 68.3769C4.58823 68.3601 4.60368 68.3348 4.6242 68.3011C4.66524 68.2339 4.72654 68.1335 4.80693 68.0021C4.96773 67.7394 5.20488 67.3527 5.50906 66.8591C6.11748 65.8717 6.99377 64.4569 8.06329 62.7501C10.2034 59.3349 13.1124 54.7584 16.1945 50.1024C19.2822 45.4379 22.5187 40.7316 25.3179 37.0408C26.7203 35.1919 27.98 33.6415 29.0336 32.4926C29.5605 31.918 30.0064 31.4762 30.3687 31.1592C30.758 30.8185 30.937 30.7232 30.9311 30.726L28.3445 25.3122ZM-0.661792 68.2261C5.76844 80.5951 16.4885 88.0432 25.4033 92.3756C29.8783 94.5504 33.9578 95.9697 36.9254 96.8475C38.4112 97.2869 39.6237 97.5923 40.4746 97.7895C40.9002 97.8882 41.2358 97.96 41.4704 98.008C41.5877 98.0321 41.6798 98.0502 41.7453 98.0628C41.7781 98.0691 41.8042 98.074 41.8235 98.0776C41.8332 98.0794 41.8411 98.0809 41.8474 98.082C41.8505 98.0826 41.8532 98.0831 41.8554 98.0835C41.8565 98.0837 41.8579 98.0839 41.8584 98.084C41.8597 98.0843 41.8608 98.0845 42.3937 95.1322C42.9266 92.1799 42.9275 92.18 42.9283 92.1802C42.9284 92.1802 42.9292 92.1803 42.9294 92.1804C42.9299 92.1805 42.93 92.1805 42.9297 92.1804C42.9291 92.1803 42.9267 92.1799 42.9227 92.1791C42.9147 92.1776 42.8999 92.1749 42.8787 92.1708C42.8362 92.1626 42.7677 92.1492 42.6744 92.1301C42.4879 92.0919 42.2027 92.0311 41.8297 91.9446C41.0834 91.7715 39.9872 91.4961 38.6273 91.0939C35.9034 90.2882 32.1433 88.9801 28.0259 86.9791C19.7556 82.96 10.2788 76.2632 4.66179 65.4586L-0.661792 68.2261ZM44.7897 96.9375L56.1282 81.8898L51.3363 78.279L39.9977 93.3268L44.7897 96.9375ZM50.7354 79.9476L45.4204 196.417L51.4142 196.691L56.7292 80.2212L50.7354 79.9476ZM47.0835 199.241C74.9571 213.077 95.3276 214 114.677 214V208C95.759 208 76.4444 207.117 49.7512 193.867L47.0835 199.241ZM114.677 214C134.03 214 154.032 213.076 181.893 199.554L179.273 194.156C152.566 207.118 133.592 208 114.677 208V214ZM183.58 196.718L178.265 80.2486L172.271 80.5221L177.586 196.992L183.58 196.718ZM172.872 82.1907L184.21 97.2385L189.002 93.6277L177.664 78.58L172.872 82.1907ZM189.606 95.4331C189.606 96.8707 188.63 97.6479 188.535 97.7274C188.279 97.9412 188.048 98.0591 187.975 98.0958C187.8 98.1837 187.664 98.2286 187.658 98.2305C187.612 98.246 187.612 98.2441 187.714 98.2166C187.9 98.1662 188.174 98.0977 188.605 97.9877C189.431 97.7767 190.642 97.4608 192.134 97.0138C195.115 96.1212 199.225 94.704 203.724 92.5287C212.687 88.1955 223.431 80.7354 229.685 68.1799L224.315 65.5048C218.876 76.4239 209.424 83.1086 201.112 87.1269C196.975 89.1274 193.179 90.4376 190.413 91.2661C189.032 91.6797 187.909 91.9727 187.12 92.1744C186.743 92.2706 186.389 92.3594 186.149 92.4241C186.038 92.4541 185.875 92.4992 185.72 92.552C185.66 92.5726 185.482 92.6336 185.279 92.7355C185.192 92.7792 184.951 92.9034 184.688 93.123C184.586 93.2084 183.606 93.9908 183.606 95.4331H189.606Z" fill="url(#paint0_linear)" mask="url(#path-1-inside-1)"/>
<defs>
<linearGradient id="paint0_linear" x1="114.5" y1="22" x2="114.5" y2="211" gradientUnits="userSpaceOnUse">
<stop stop-color="#DB00DF"/>
<stop offset="0.963542" stop-color="#6457E3"/>
</linearGradient>
</defs>
</svg>
