<svg width="532" height="347" viewBox="0 0 532 347" fill="none" xmlns="http://www.w3.org/2000/svg">
<rect x="1" y="1" width="530" height="345" rx="4" stroke="#968B8B" stroke-width="2"/>
<rect x="462.5" y="119.5" width="69" height="107" stroke="#968B8B"/>
<rect x="0.5" y="119.5" width="69" height="107" stroke="#968B8B"/>
<circle cx="266" cy="173" r="53.5" stroke="#C4C4C4"/>
<line x1="266.5" x2="266.5" y2="347" stroke="#C4C4C4"/>
<path d="M334.069 328.053C334.65 327.462 334.643 326.513 334.053 325.931L324.435 316.457C323.845 315.876 322.895 315.883 322.314 316.473C321.733 317.064 321.74 318.013 322.33 318.595L330.879 327.016L322.457 335.565C321.876 336.155 321.883 337.105 322.473 337.686C323.064 338.267 324.013 338.26 324.595 337.67L334.069 328.053ZM200.011 329.5L333.011 328.5L332.989 325.5L199.989 326.5L200.011 329.5Z" fill="#968B8B"/>
</svg>
